<?xml version="1.0" encoding="UTF-8"?>
<svg version="1.1" xmlns="http://www.w3.org/2000/svg" width="512" height="512">
<path d="M0 0 C1.01790619 0.00215515 2.03581238 0.0043103 3.08456421 0.00653076 C17.69363523 0.05620146 32.02575853 0.30709809 46.375 3.3125 C47.34985352 3.51117676 48.32470703 3.70985352 49.32910156 3.91455078 C97.7109774 14.03517194 141.69928269 35.9516877 177.375 70.3125 C178.3640332 71.26068604 178.3640332 71.26068604 179.37304688 72.22802734 C188.86130305 81.37247479 197.6012044 90.66984009 205.375 101.3125 C206.23306152 102.46355017 207.09113451 103.61459177 207.94921875 104.765625 C213.98736829 112.95680614 219.34595521 121.47054105 224.375 130.3125 C224.73948242 130.94430176 225.10396484 131.57610352 225.47949219 132.22705078 C247.08534998 169.97532572 256.85198095 212.74189997 256.6875 255.9375 C256.68534485 256.95540619 256.6831897 257.97331238 256.68096924 259.02206421 C256.63129854 273.63113523 256.38040191 287.96325853 253.375 302.3125 C253.07698486 303.77478027 253.07698486 303.77478027 252.77294922 305.26660156 C242.65232806 353.6484774 220.7358123 397.63678269 186.375 433.3125 C185.74287598 433.97185547 185.11075195 434.63121094 184.45947266 435.31054688 C175.31502521 444.79880305 166.01765991 453.5387044 155.375 461.3125 C154.22394983 462.17056152 153.07290823 463.02863451 151.921875 463.88671875 C143.73224019 469.92427396 135.22961724 475.30707302 126.375 480.3125 C125.66778809 480.7146875 124.96057617 481.116875 124.23193359 481.53125 C101.09654164 494.5566741 75.92537591 503.30551461 49.9375 508.625 C49.21860596 508.77235596 48.49971191 508.91971191 47.7590332 509.0715332 C33.08339502 511.86090125 18.55831162 512.66142619 3.64770508 512.62817383 C0.70811513 512.6250221 -2.2304558 512.64854926 -5.16992188 512.67382812 C-18.54306192 512.71848737 -31.43916711 511.51301542 -44.625 509.3125 C-46.33055054 509.03031616 -46.33055054 509.03031616 -48.07055664 508.74243164 C-91.33802759 500.97044532 -132.38793216 480.98345309 -165.625 452.3125 C-166.37007813 451.67828125 -167.11515625 451.0440625 -167.8828125 450.390625 C-181.38779833 438.57948485 -194.05918743 425.82889772 -204.625 411.3125 C-205.48149066 410.16255169 -206.33826433 409.01281411 -207.1953125 407.86328125 C-213.23534209 399.67315742 -218.61867614 391.16870382 -223.625 382.3125 C-224.0271875 381.60528809 -224.429375 380.89807617 -224.84375 380.16943359 C-237.8691741 357.03404164 -246.61801461 331.86287591 -251.9375 305.875 C-252.08485596 305.15610596 -252.23221191 304.43721191 -252.3840332 303.6965332 C-255.35789088 288.05024391 -255.99800362 272.57681954 -255.9375 256.6875 C-255.93534485 255.66959381 -255.9331897 254.65168762 -255.93096924 253.60293579 C-255.88129854 238.99386477 -255.63040191 224.66174147 -252.625 210.3125 C-252.42632324 209.33764648 -252.22764648 208.36279297 -252.02294922 207.35839844 C-241.90232806 158.9765226 -219.9858123 114.98821731 -185.625 79.3125 C-184.99287598 78.65314453 -184.36075195 77.99378906 -183.70947266 77.31445312 C-174.56502521 67.82619695 -165.26765991 59.0862956 -154.625 51.3125 C-153.47394983 50.45443848 -152.32290823 49.59636549 -151.171875 48.73828125 C-142.98224019 42.70072604 -134.47961724 37.31792698 -125.625 32.3125 C-124.91778809 31.9103125 -124.21057617 31.508125 -123.48193359 31.09375 C-100.34654164 18.0683259 -75.17537591 9.31948539 -49.1875 4 C-48.46860596 3.85264404 -47.74971191 3.70528809 -47.0090332 3.5534668 C-31.36274391 0.57960912 -15.88931954 -0.06050362 0 0 Z " fill="#21B3F5" transform="translate(255.625,-0.3125)"/>
<path d="M0 0 C3.52246957 1.12676408 6.87089675 2.31130622 10.17163086 3.98022461 C11.32090309 4.55739479 11.32090309 4.55739479 12.49339294 5.14622498 C13.30897171 5.56074417 14.12455048 5.97526337 14.96484375 6.40234375 C16.26863731 7.05814171 16.26863731 7.05814171 17.59877014 7.72718811 C20.38028685 9.12681448 23.15908765 10.53172254 25.9375 11.9375 C29.54929011 13.76208625 33.16250522 15.5838043 36.77734375 17.40234375 C37.69917953 17.8662149 38.62101532 18.33008606 39.57078552 18.80801392 C45.96735356 22.01397608 52.40797866 25.11490871 58.875 28.17578125 C67.50566562 32.26660487 76.04447087 36.51856136 84.55531502 40.85127068 C86.59221091 41.88785385 88.63019977 42.92225511 90.66856384 43.95594788 C92.03490804 44.64900529 93.40124612 45.34207479 94.76757812 46.03515625 C95.44714852 46.37985175 96.12671892 46.72454725 96.82688236 47.07968807 C100.32893934 48.85740664 103.82778374 50.64106287 107.3215332 52.43505859 C110.77109509 54.20580319 114.22824784 55.96083435 117.69103813 57.70555878 C118.99246789 58.36487035 120.29102452 59.02988759 121.58647346 59.70087433 C123.38089666 60.62947311 125.1864671 61.5364345 126.99243164 62.44238281 C128.0111586 62.96213684 129.02988556 63.48189087 130.07948303 64.01739502 C135.68958301 65.90490748 140.0740592 63.71488143 145.15234375 61.2109375 C145.74772446 60.92014816 146.34310516 60.62935883 146.95652771 60.32975769 C148.95383166 59.35208329 150.94552235 58.36347569 152.9375 57.375 C154.37869845 56.66713243 155.82027925 55.96004286 157.26220703 55.25366211 C160.43868242 53.69608068 163.6128845 52.1339829 166.78564453 50.56884766 C172.31900703 47.84055138 177.86011631 45.12820233 183.40234375 42.41796875 C184.37907043 41.94031067 185.35579712 41.46265259 186.36212158 40.97052002 C188.35975152 39.99361148 190.35739157 39.0167236 192.3550415 38.03985596 C195.37893233 36.56057631 198.40221266 35.08005635 201.42529297 33.59912109 C215.17320882 26.86497579 228.93463735 20.15931447 242.71435547 13.49047852 C244.01924647 12.85831977 245.32409793 12.22607939 246.62890625 11.59375 C247.55210663 11.14702187 247.55210663 11.14702187 248.49395752 10.69126892 C251.67495183 9.14730832 254.84228668 7.58026851 257.99560547 5.98046875 C258.96408669 5.49012146 258.96408669 5.49012146 259.95213318 4.98986816 C261.73164042 4.08619787 263.50836966 3.17706311 265.28491211 2.26757812 C268 1 268 1 270 1 C270.09356891 18.70710217 270.16404058 36.4141399 270.20724869 54.12143612 C270.22784697 62.34381833 270.25591502 70.56604666 270.30175781 78.78833008 C270.34170961 85.9574507 270.36745268 93.12645983 270.37635398 100.29568869 C270.38155469 104.08946227 270.3937205 107.88291698 270.42292023 111.67658806 C270.45022164 115.25285429 270.45841564 118.82867256 270.45243073 122.40503311 C270.45404299 124.33208706 270.4754884 126.25909306 270.49768066 128.1860199 C270.45086147 138.10654357 268.28506313 145.22157541 261.5 152.56640625 C255.02208462 158.75753892 247.08786739 159.29810735 238.60098267 159.26742554 C237.6743854 159.27195665 236.74778813 159.27648776 235.79311216 159.28115618 C232.69877489 159.2937821 229.60461403 159.29218098 226.51025391 159.29052734 C224.287397 159.29651366 222.06454217 159.30331944 219.84169006 159.31088257 C213.81068975 159.32853783 207.77974621 159.33323772 201.74872255 159.33451414 C197.97947252 159.3359364 194.2102369 159.3402074 190.44099045 159.34550858 C177.96631201 159.36305207 165.49166581 159.37234903 153.01697762 159.37084763 C152.34525196 159.37076772 151.6735263 159.3706878 150.98144531 159.37060547 C150.30889506 159.37052371 149.63634482 159.37044195 148.94341426 159.37035771 C138.04408311 159.36954482 127.14489016 159.3886861 116.24559899 159.4168822 C105.04125403 159.44563771 93.83697436 159.45905512 82.63258493 159.45769465 C76.34735638 159.45718497 70.06228431 159.46287217 63.77708817 159.48405075 C57.86564147 159.50342668 51.95450068 159.50356174 46.04304314 159.48901749 C43.87631089 159.48692761 41.70955952 159.49164086 39.54286003 159.5037384 C36.57921013 159.51921107 33.61661242 159.50986902 30.65298462 159.49447632 C29.80072977 159.50476344 28.94847492 159.51505057 28.07039416 159.52564943 C20.38914979 159.43781402 13.53786698 156.88615873 7.6875 151.8125 C7.07261719 151.30332031 6.45773438 150.79414063 5.82421875 150.26953125 C-0.33355161 142.60857926 -0.56205576 134.73242321 -0.45410156 125.21850586 C-0.45297125 123.84773797 -0.45361053 122.47696766 -0.45587158 121.10620117 C-0.4570125 117.41035503 -0.43360532 113.71503525 -0.40557575 110.01931071 C-0.38045735 106.14763146 -0.37821192 102.27593823 -0.37347412 98.40419006 C-0.36107484 91.08389382 -0.3282949 83.76383843 -0.28807616 76.44364792 C-0.24326314 68.10505881 -0.22134753 59.7664578 -0.20129442 51.42777812 C-0.15955923 34.28504644 -0.089267 17.14254874 0 0 Z " fill="#FEFEFE" transform="translate(121,202)"/>
<path d="M0 0 C0.93068082 -0.00467997 1.86136164 -0.00935994 2.82024491 -0.01418173 C5.92849691 -0.026116 9.03630674 -0.01668043 12.14456177 -0.00723267 C14.37727108 -0.01129911 16.60997839 -0.0166414 18.84268188 -0.02316284 C24.90057993 -0.03683507 30.95832463 -0.03153766 37.01622534 -0.02202559 C43.35947423 -0.01442668 49.70271006 -0.02147542 56.04595947 -0.02618408 C67.38264179 -0.03199129 78.71924634 -0.02267018 90.05591311 -0.00740607 C100.3228019 0.0059901 110.58958889 0.00367378 120.85647583 -0.01016235 C132.79146659 -0.02623908 144.72639556 -0.03218066 156.66140091 -0.02332556 C162.97453703 -0.0186533 169.28760312 -0.0180118 175.60073471 -0.02793503 C181.53841868 -0.03661609 187.47591091 -0.03056171 193.41357422 -0.01325226 C195.58997403 -0.00929318 197.76639004 -0.01041152 199.94278336 -0.01704025 C202.9194285 -0.02526879 205.89546375 -0.01491799 208.87207031 0 C209.72821611 -0.00669217 210.58436191 -0.01338433 211.46645153 -0.02027929 C220.17798128 0.06408688 227.38169921 2.2514226 233.7661438 8.29110718 C238.92721669 14.29365935 240.68223471 19.5493826 240.5630188 27.38095093 C196.0807946 49.20363814 196.0807946 49.20363814 178.48880005 57.79110718 C177.63972076 58.2056163 176.79064148 58.62012543 175.91583252 59.04719543 C171.78472026 61.06311183 167.65212805 63.07591714 163.51712036 65.08383179 C155.6656662 68.8988968 147.82817428 72.73774018 140.02328491 76.64738464 C136.22712147 78.54740274 132.42525558 80.43584732 128.62289429 82.32342529 C126.80827627 83.22831551 124.99647595 84.13888095 123.18771362 85.05541992 C120.69079893 86.32024166 118.18493496 87.56535904 115.67630005 88.80673218 C114.94076401 89.18579712 114.20522797 89.56486206 113.44740295 89.95541382 C112.7576387 90.2921814 112.06787445 90.62894897 111.35720825 90.97592163 C110.47014946 91.42171318 110.47014946 91.42171318 109.56517029 91.87651062 C104.71691873 93.09802334 100.20136805 90.95288889 95.91291809 88.82669067 C94.81227524 88.2856218 93.71163239 87.74455292 92.57763672 87.18708801 C91.37305025 86.58489314 90.16855498 85.98251584 88.96414185 85.37997437 C87.68442007 84.74692117 86.40437706 84.11451702 85.1240387 83.48271179 C81.65767921 81.76928927 78.19656769 80.04552077 74.73680472 78.31882381 C72.57505964 77.2404866 70.41224122 76.16433455 68.24903297 75.08893585 C60.70294321 71.33736557 53.16123497 67.57714395 45.62332153 63.80917358 C38.59424218 60.29585325 31.55566523 56.80211619 24.51246995 53.31719375 C18.4643688 50.32352862 12.42324883 47.31609551 6.38736945 44.29786515 C2.78266365 42.49565406 -0.8246657 40.69925504 -4.43917274 38.91677094 C-7.83465959 37.24173113 -11.22115409 35.54977488 -14.60144615 33.84428978 C-15.84439312 33.22085729 -17.09045261 32.60358706 -18.33972168 31.99292183 C-20.04199439 31.15963693 -21.73228926 30.30201358 -23.42179871 29.44314575 C-24.3717487 28.96972118 -25.3216987 28.49629662 -26.30043507 28.00852585 C-28.4369812 26.38095093 -28.4369812 26.38095093 -29.2792387 23.83922195 C-29.64066032 18.20680024 -27.05068365 13.22784737 -23.40963745 9.06063843 C-16.03726412 2.23016604 -9.87140429 -0.07676099 0 0 Z " fill="#FDFEFE" transform="translate(150.43698120117188,150.61904907226563)"/>
</svg>
